<svg version="1.0" xmlns="http://www.w3.org/2000/svg"
 width="756" height="752" viewBox="0 0 756.000000 752.000000"
 preserveAspectRatio="xMidYMid meet">
  <g transform="translate(0.000000,752.000000) scale(0.100000,-0.100000)"
     fill="#FFF" stroke="#000" stroke-width="20">
    <path d="M3585 7184 c-166 -14 -499 -70 -675 -115 -102 -26 -396 -124 -500
-166 -122 -50 -306 -150 -485 -262 -314 -197 -630 -488 -832 -766 -240 -333
-402 -638 -503 -951 -96 -297 -159 -599 -181 -862 -15 -182 -6 -680 16 -821
59 -395 166 -734 341 -1088 141 -285 215 -398 432 -658 378 -454 901 -812
1457 -996 397 -132 705 -187 1105 -196 212 -4 270 -2 430 17 687 81 1280 319
1760 706 301 242 507 464 722 774 78 113 218 376 283 535 102 246 178 497 225
745 51 272 55 315 54 655 0 294 -3 334 -27 493 -34 219 -66 362 -128 571 -67
224 -103 310 -226 551 -330 648 -759 1090 -1393 1436 -354 194 -728 309 -1235
380 -115 16 -520 27 -640 18z m540 -415 c288 -25 637 -109 913 -219 212 -85
595 -321 781 -482 245 -212 473 -513 665 -878 154 -293 269 -663 323 -1040 25
-179 25 -665 -1 -830 -51 -326 -132 -599 -266 -889 -97 -212 -265 -486 -406
-663 -246 -306 -646 -611 -1027 -781 -305 -136 -624 -224 -967 -268 -164 -21
-511 -16 -685 10 -268 40 -426 78 -660 158 -339 116 -640 280 -915 500 -296
236 -548 557 -745 948 -158 315 -253 621 -312 1005 -13 89 -17 179 -17 400 0
296 8 384 55 625 96 487 301 943 596 1323 94 123 360 384 478 472 242 179 555
349 815 441 175 62 505 134 725 158 55 6 114 13 130 15 73 8 411 5 520 -5z"/>
    <path d="M4163 6450 c-19 -11 -35 -31 -39 -47 -4 -15 -14 -37 -24 -48 -31 -36
-32 -56 -4 -112 14 -30 23 -61 20 -69 -3 -8 -31 -26 -62 -40 -76 -33 -149 -82
-274 -179 -58 -45 -120 -90 -138 -99 -19 -10 -111 -33 -205 -52 -95 -19 -212
-45 -262 -58 -102 -27 -173 -38 -179 -27 -3 4 2 31 11 60 10 37 21 55 35 59
18 4 19 10 12 46 -5 23 -7 88 -6 145 3 95 6 106 27 122 22 18 85 108 85 122 0
4 -20 7 -45 7 -42 0 -45 2 -35 19 12 24 13 44 2 37 -5 -3 -87 6 -183 20 -151
23 -181 24 -234 14 -91 -18 -173 -67 -201 -121 -41 -80 -38 -233 7 -398 22
-80 19 -91 -29 -91 -43 0 -89 -28 -121 -73 -35 -47 -37 -49 -177 -108 -199
-83 -273 -143 -339 -275 -45 -90 -105 -195 -193 -339 -61 -98 -62 -100 -62
-172 0 -42 6 -89 14 -108 23 -53 236 -365 262 -382 21 -14 28 -13 78 10 30 14
73 44 96 68 37 39 43 42 62 30 62 -39 167 -84 203 -88 73 -7 125 43 125 122 0
48 -14 78 -55 119 -41 41 -77 53 -116 39 -25 -10 -28 -8 -34 15 -3 14 -14 43
-24 63 l-19 38 29 27 28 27 28 -34 c33 -40 73 -81 129 -131 23 -20 60 -63 82
-95 22 -33 100 -120 172 -194 73 -74 136 -144 140 -155 5 -12 4 -52 0 -90 -5
-38 -14 -143 -20 -234 -5 -91 -13 -176 -16 -189 -7 -24 -7 -24 57 -17 35 4 72
8 82 9 18 2 19 -11 17 -233 -1 -212 1 -241 20 -294 11 -32 25 -65 31 -72 8
-10 8 -26 0 -58 -6 -25 -11 -71 -11 -103 0 -32 -7 -83 -15 -113 -8 -30 -15
-82 -15 -115 0 -60 31 -259 71 -447 18 -89 48 -291 49 -329 0 -15 6 -15 61 -4
45 10 61 10 64 1 2 -6 11 -43 19 -83 40 -180 11 -244 -145 -327 -75 -40 -86
-51 -91 -86 -3 -24 -7 -26 -108 -37 -135 -15 -280 -43 -280 -54 0 -22 192 -48
435 -59 440 -19 1608 2 1638 30 8 7 -101 32 -220 50 -142 20 -611 50 -795 50
l-188 0 20 32 c25 42 25 85 -1 184 -19 74 -20 88 -8 221 9 117 14 143 27 143
11 0 318 152 329 164 2 1 -2 17 -7 35 -5 18 -18 101 -29 184 -61 461 -61 867
0 1163 l13 61 95 -80 c53 -43 107 -89 120 -101 l25 -23 26 56 c15 31 41 71 57
88 l31 33 -82 51 c-145 92 -236 161 -236 180 0 33 41 172 69 234 20 44 42 73
82 105 30 25 59 51 65 59 9 11 29 0 110 -60 54 -40 132 -102 172 -137 40 -35
75 -62 76 -60 2 1 17 25 35 51 18 27 46 64 63 82 l29 34 -38 23 c-173 106
-293 184 -293 189 0 13 138 136 240 215 143 110 304 219 430 291 121 70 418
219 503 254 44 17 56 27 51 38 -10 23 -55 203 -52 206 2 1 48 29 103 62 123
74 182 104 263 133 83 30 112 64 112 131 0 64 -16 93 -87 160 -78 72 -95 99
-127 196 -30 91 -73 140 -156 181 -153 74 -241 8 -156 -116 40 -57 52 -97 61
-202 9 -112 -4 -163 -55 -215 l-43 -43 -66 51 c-36 28 -83 64 -103 80 -45 36
-41 37 -195 -59 -58 -37 -229 -129 -382 -206 -152 -77 -312 -164 -356 -193
-200 -131 -286 -181 -360 -211 -44 -17 -101 -41 -127 -52 l-46 -21 -12 28 c-6
16 -31 49 -56 74 -24 25 -44 50 -44 55 0 14 33 33 145 81 166 72 286 136 373
198 121 87 268 222 291 269 20 38 20 43 6 100 -9 32 -23 80 -32 106 l-16 46
39 87 c21 48 60 112 87 143 79 94 84 157 20 232 -83 97 -159 124 -230 80z"/>
  </g>
</svg>